<svg id="svg2896" xmlns="http://www.w3.org/2000/svg" viewBox="0 0 496.55 391.55">
    <defs>
        <style>.cls-1{fill:#f9f9f9;}.cls-2{fill:#f7db01;}</style>
    </defs>
    <g id="g2888">
        <g id="flowRoot230-7">
            <path id="path1133-9" class="cls-1" d="M98.58,350q-38.41,0-47.84-36.54a68.24,68.24,0,0,1-1.83-16.48q0-16.8,6.47-39.31,6.33,25.94,21.67,32.79a38.64,38.64,0,0,0,15.62,3.26q8.86,0,23.22-5.55,14.49-5.7,31.66-22.67a130.27,130.27,0,0,0,27-39q-16.45,9.94-28.42,14.68-25.89,10.11-39.68,10.11-11.53,0-24.48-6.85-12.95-7-20.83-25.61a70.54,70.54,0,0,1-5.49-28.22,91.57,91.57,0,0,1,1.27-14.85,146.76,146.76,0,0,1,20.4-52.37,253.61,253.61,0,0,1,36-45.52q29.82-29.68,53.89-40,13.08-5.7,22.65-5.7,16,0,27.86,18.27,9.86,15,9.85,30.5,0,31.82-30.39,63.47,31,0,31,22.67a30,30,0,0,1-2,10.28q-4.94-8.32-19-8.32-14.78,0-32.5,5.22-22.25,6.85-35.46,15.17c-2.54-.87-3.8-3-3.8-6.36q0-3.92,3.66-8.65,5.63-7.5,16.6-14.35,27.72-43.23,38-78.64,2.82-9.3,2.82-14c0-3.8-1.27-5.71-3.8-5.71q-4.78,0-16,10.12-48.41,43.89-66.14,87.28-9.42,23.16-9.43,35.73,0,14.69,10,17.94a29.49,29.49,0,0,0,9,1.31q11.25,0,37-9,12-4.23,16.74-4.24,6.48,0,13.51,4.57,7,4.41,11.82,14.85A43.44,43.44,0,0,1,203,238.2a40.22,40.22,0,0,1-.28,4.73q-3.81,31.5-18.58,54.33t-34.89,35.89Q123.48,350,98.58,350Z" transform="translate(-41.46 -32.16)"/>
            <path id="path1135-4" class="cls-1" d="M271.23,320.75q-16.19,0-27.3-10.93a82.19,82.19,0,0,1-17.72-26.92q-7-16.47-7-32,0-8.33,3-21.21a252.22,252.22,0,0,1,8.31-27.9,261.59,261.59,0,0,1,11.68-28.38,122.73,122.73,0,0,1,13.5-22q6.9-8.64,13.23-8.64a26,26,0,0,1,11.68,2.93,40.06,40.06,0,0,1,10,6.85q11.12-20.72,23.92-20.72,10.13,0,18.43,7.51a31.18,31.18,0,0,1,9.71,18.43,96.45,96.45,0,0,1,1.55,17.62q0,18-5.77,45.36Q332.59,248,318.23,276.7h1q12,0,32.65-38,8.73-16,19.14-37,12.51,0,13.93,9.46-4.23,8.16-9.43,20.07Q367.9,249,357.77,267.41q-10,18.27-23.08,28.22a26.19,26.19,0,0,1-16.32,5.87A33.14,33.14,0,0,1,305,298.4q-16.32,22.35-33.77,22.35ZM302.89,257q1.28-3.09,4.08-11.9,7.32-23.67,12-45.2,4.79-21.69,4.79-34.09a56,56,0,0,0-.85-9.3q-.84-5.06-5.63-5.06-13.5,0-18.71,32.63a197.33,197.33,0,0,0-2.39,31,175.13,175.13,0,0,0,1.69,25.28Q299.51,251.92,302.89,257ZM274.61,289.1q7,0,13.65-7.5Q273.77,255.33,273.77,216q0-5.39.28-10.94-12.81,31.17-12.81,55c0,1.42.1,4.36.28,8.81a35.43,35.43,0,0,0,3.8,13.38q3.38,6.86,9.29,6.85Z" transform="translate(-41.46 -32.16)"/>
            <path id="path1137-2" class="cls-1" d="M389.15,353.71q-18.15-14-22.09-28.39a45.6,45.6,0,0,1-1.55-11.75q0-8.64,4.64-20.06t15.76-24.8q11.26-13.54,23.36-25.45-.42-10.94-.42-21.37a515.78,515.78,0,0,1,3.23-57.27q-15,23.34-27.29,46.5-8.73,0-13.93-9.46l3.94-8.32q27.85-58.9,44-58.9a26.84,26.84,0,0,1,14.63,4.08,158.42,158.42,0,0,1,15.62,12.24q-.84,14.19-.84,35.56V201.5q41.36-47.64,41.36-85.16a76.52,76.52,0,0,0-.42-8.16q16.19,13.38,18.72,27.57a38,38,0,0,1,.7,7.34q0,22.18-26,52-17.18,19.91-32.79,35.4a207.32,207.32,0,0,0,3.38,24.31q2.25,10.93,5.91,17.62,3.66,6.53,9,6.53,14.34,0,35.6-39.32l20.4-38q12.52,0,13.93,9.46Q523,239.67,509.6,268.87q-8.44,18.6-16.33,30.18-17.16,25.79-36.58,25.78-12.94,0-21.67-7a50,50,0,0,1-14.21-18.6,111.71,111.71,0,0,1-8-26.43q-24.06,32.29-24.06,70.15,0,5.22.42,10.77Z" transform="translate(-41.46 -32.16)"/>
        </g>
        <g id="flowRoot248-4">
            <path id="path1140-0" class="cls-2" d="M441.31,362.71a81.06,81.06,0,0,0-27.45-17.29A88.57,88.57,0,0,0,383,339.91a151.4,151.4,0,0,0-41.93,6,331,331,0,0,0-42.14,14.79q-21,9-42.15,19.54t-42.58,19.8a427.78,427.78,0,0,1-43.22,16,182.11,182.11,0,0,1-43.88,7.51,110.18,110.18,0,0,1-34.79-3.76,78.19,78.19,0,0,1-27-13.53,64.07,64.07,0,0,1-17.51-22.8Q41.46,370,41.46,352.94l1.3-6a116.3,116.3,0,0,0,12.1,11.53,95.86,95.86,0,0,0,15.57,10,106.3,106.3,0,0,0,18.58,7,89.17,89.17,0,0,0,21.4,2.51,182.81,182.81,0,0,0,41.5-4.77A403,403,0,0,0,193,361q20.53-7.53,40.63-16,20.33-8.78,40.85-16a345,345,0,0,1,41.28-12.28,182.59,182.59,0,0,1,42.58-5,127.92,127.92,0,0,1,25.94,2.51,76.08,76.08,0,0,1,22.91,8,79.82,79.82,0,0,1,20.1,14.78,115.64,115.64,0,0,1,17.5,22.3Z" transform="translate(-41.46 -32.16)"/>
        </g>
    </g>
</svg>
